# xmcd
#
# Track frame offsets: 
#        150
#        20994
#        38687
#        51280
#        66647
#        76575
#        93225
#        106720
#        125405
#        135957
#        146690
#        160402
#        176405
#        188462
#        211167
#        221602
#        233720
#        248742
#        258577
#        281255
#
# Disc length: 3901 seconds
#
# Revision: 1
# Processed by: cddbd v1.5PL3 Copyright (c) Steve Scherf et al.
# Submitted via: ExactAudioCopy v0.90b4
#
DISCID=110f3b14
DTITLE=David Allen Coe - 20 Greatest Hits
DYEAR=1994
DGENRE=Country
TTITLE0=You Never Even Called Me By My Name (The Perfect Country And W
TTITLE0=estern Song)
TTITLE1=Mona Lisa Lost Her Smile
TTITLE2=Tennessee Whiskey
TTITLE3=Branded Man
TTITLE4=Truck Driving Man
TTITLE5=Long Black Veil
TTITLE6=White Line Fever
TTITLE7=Roll On 18 Wheeler
TTITLE8=Six Days On The Road
TTITLE9=Mama Tried
TTITLE10=The Ride
TTITLE11=Willie, Waylon And Me
TTITLE12=Ride 'Em Cowboy
TTITLE13=House Of The Rising Sun
TTITLE14=Would You Lay With Me  (In A Field Of Stone)
TTITLE15=Take This Job And Shove It
TTITLE16=Lonesome Fugitive
TTITLE17=Frankie and Johnnie
TTITLE18=If That Ain't Country (I'll Kiss Your SSS)
TTITLE19=Papa Loved Mama
EXTD=
EXTT0=
EXTT1=
EXTT2=
EXTT3=
EXTT4=
EXTT5=
EXTT6=
EXTT7=
EXTT8=
EXTT9=
EXTT10=
EXTT11=
EXTT12=
EXTT13=
EXTT14=
EXTT15=
EXTT16=
EXTT17=
EXTT18=
EXTT19=
PLAYORDER=
